<svg width="278" height="48" viewBox="0 0 278 48" fill="none" xmlns="http://www.w3.org/2000/svg">
<rect width="278" height="48" rx="6" fill="#DEE0E3"/>
<rect width="28" height="28" transform="translate(95 10)" fill="#F1F2F4"/>
<path d="M102 17H106.719L111.263 23.5971V17H116V31H111.263L106.293 24.1082V31H102V17Z" fill="#999999"/>
<path d="M143.264 25.024V23.54H141.57C141.892 21.734 141.892 20.432 141.892 19.214V18.052H132.946V19.536H140.086C140.086 20.656 140.058 21.902 139.736 23.54H131.616V25.024H136.432V30.204H138.308V25.024H143.264ZM155.471 17.296H153.721V22.224H152.643V17.506H150.921V29.616H152.643V23.708H153.721V30.19H155.471V17.296ZM144.775 18.626V26.984H149.857V18.626H144.775ZM146.497 25.542V20.082H148.149V25.542H146.497ZM169.19 23.876V22.35H167.342V17.31H165.494V30.204H167.342V23.876H169.19ZM161.854 19.214V17.534H160.006V19.214H157.15V20.684H164.654V19.214H161.854ZM160.944 21.412C159.068 21.412 157.668 22.686 157.668 24.478C157.668 26.312 159.068 27.572 160.944 27.572C162.806 27.572 164.192 26.312 164.192 24.478C164.192 22.686 162.806 21.412 160.944 21.412ZM160.944 26.06C160.048 26.06 159.432 25.5 159.432 24.492C159.432 23.484 160.048 22.91 160.944 22.91C161.84 22.91 162.442 23.512 162.442 24.478C162.442 25.486 161.84 26.06 160.944 26.06ZM180.767 17.296H178.905V30.19H180.767V17.296ZM176.931 18.64H170.743V20.11H175.041C174.775 22.966 173.347 24.996 170.057 26.564L171.023 28.02C175.601 25.822 176.931 22.574 176.931 18.64Z" fill="#999999"/>
</svg>
